
<svg id="e5b3oQi9Ijn1" xmlns="http://www.w3.org/2000/svg" xmlns:xlink="http://www.w3.org/1999/xlink" viewBox="0 0 43.85 59" shape-rendering="geometricPrecision" text-rendering="geometricPrecision"><g transform="matrix(1 0 0 1.017733-.001699-.518526)"><path d="M8.68945,34.7331L13.1482,19.2902h17.8351L35.442,34.7331h-26.75255Z" clip-rule="evenodd" fill="#eed9c3" fill-rule="evenodd"/><ellipse rx="1.26005" ry="1.24284" transform="translate(27.7849 27.1223)" fill="#353535"/><path d="M19.446,25.7092c0-.434-.3569-.7859-.7967-.7859-1.0113,0-2.7459,0-3.7571,0-.4399,0-.7967.3519-.7967.7859c0,.6764,0,1.6624,0,2.4334c0,.6509.535,1.1786,1.1947,1.1786.4093,0,.8861,0,1.3676,0c.7395,0,1.4484-.2898,1.9717-.8057.5227-.5154.8165-1.2151.8165-1.9443c0-.3127,0-.6091,0-.862Z" clip-rule="evenodd" fill="#a78347" fill-rule="evenodd"/><path d="M35.0004,4.5308L43.8517,0L39.0002,18l-4,4l.0002-17.4692Z" clip-rule="evenodd" fill="#e3b261" fill-rule="evenodd"/><path d="M8.8514,4.5308L0.000133,0L4.85156,18l4,4L8.8514,4.5308Z" clip-rule="evenodd" fill="#e3b261" fill-rule="evenodd"/><path d="M35.442,12.7438c0,0-6.6881-4.39791-13.3763-4.39791-6.6881,0-13.37625,4.39791-13.37625,4.39791v13.1935L10.473,29.4556c1.2797-4.8627,7.0715-6.8884,11.103-3.8833l.4897.365.4897-.365c4.0316-3.0051,9.8234-.9794,11.1031,3.8833l1.7835-3.5183v-13.1935Z" clip-rule="evenodd" fill="#e3b261" fill-rule="evenodd"/><path d="M17.6068,32.5341l-3.567,20.67-4.91846-3.5183L13.148,34.7331l4.4588-2.199Z" clip-rule="evenodd" fill="#d4d4d4" fill-rule="evenodd"/><path d="M26.5243,32.5341l3.567,20.67l4.9185-3.5183-4.0267-14.9527-4.4588-2.199Z" clip-rule="evenodd" fill="#d5d5d5" fill-rule="evenodd"/><path d="M8.68933,25.9373L5.12231,39.1309l4.45877,8.7958L13.1481,34.7331L8.68933,25.9373Z" clip-rule="evenodd" fill="#e6e6e6" fill-rule="evenodd"/><path d="M35.4418,25.9373l3.567,13.1936L34.55,47.9267L30.983,34.7331l4.4588-8.7958Z" clip-rule="evenodd" fill="#e6e6e6" fill-rule="evenodd"/><path d="M17.6069,32.5341L13.594,54.0837l8.4716,4.3978l8.4717-4.3978-4.0129-21.5496-4.1261-2.0349-.3327-.164-4.4587,2.1989Z" clip-rule="evenodd" fill="#e6e6e6" fill-rule="evenodd"/><path d="M23.6636,33.4137h-3.1211c0,0,0,.5211,0,1.1003c0,.4082.1645.7991.457,1.0876s.6889.4508,1.1027.4508c.0004,0,.0013,0,.0017,0c.4138,0,.8102-.1623,1.1027-.4508s.457-.6794.457-1.0876c0-.5792,0-1.1003,0-1.1003Z" clip-rule="evenodd" fill="#353535" fill-rule="evenodd"/></g></svg>
